<svg width="24" height="24" viewBox="0 0 24 24" fill="none" xmlns="http://www.w3.org/2000/svg">
<mask id="mask0_201_301" style="mask-type:alpha" maskUnits="userSpaceOnUse" x="0" y="0" width="24" height="24">
<rect width="24" height="24" fill="#D9D9D9"/>
</mask>
<g mask="url(#mask0_201_301)">
<path d="M2 19V14C2 13.7167 2.09583 13.4792 2.2875 13.2875C2.47917 13.0958 2.71667 13 3 13H10C10.2833 13 10.5208 13.0958 10.7125 13.2875C10.9042 13.4792 11 13.7167 11 14V19C11 19.2833 10.9042 19.5208 10.7125 19.7125C10.5208 19.9042 10.2833 20 10 20H3C2.71667 20 2.47917 19.9042 2.2875 19.7125C2.09583 19.5208 2 19.2833 2 19ZM2 10V5C2 4.71667 2.09583 4.47917 2.2875 4.2875C2.47917 4.09583 2.71667 4 3 4H10C10.2833 4 10.5208 4.09583 10.7125 4.2875C10.9042 4.47917 11 4.71667 11 5V10C11 10.2833 10.9042 10.5208 10.7125 10.7125C10.5208 10.9042 10.2833 11 10 11H3C2.71667 11 2.47917 10.9042 2.2875 10.7125C2.09583 10.5208 2 10.2833 2 10ZM4 9H9V6H4V9ZM18 19.575C17.8667 19.575 17.7417 19.5542 17.625 19.5125C17.5083 19.4708 17.4 19.4 17.3 19.3L13.7 15.7C13.5167 15.5167 13.4208 15.2875 13.4125 15.0125C13.4042 14.7375 13.5 14.5 13.7 14.3C13.8833 14.1167 14.1167 14.025 14.4 14.025C14.6833 14.025 14.9167 14.1167 15.1 14.3L17 16.175V5C17 4.71667 17.0958 4.47917 17.2875 4.2875C17.4792 4.09583 17.7167 4 18 4C18.2833 4 18.5208 4.09583 18.7125 4.2875C18.9042 4.47917 19 4.71667 19 5V16.175L20.9 14.3C21.0833 14.1167 21.3125 14.0208 21.5875 14.0125C21.8625 14.0042 22.1 14.1 22.3 14.3C22.4833 14.4833 22.575 14.7167 22.575 15C22.575 15.2833 22.4833 15.5167 22.3 15.7L18.7 19.3C18.6 19.4 18.4917 19.4708 18.375 19.5125C18.2583 19.5542 18.1333 19.575 18 19.575Z" fill="#52443D"/>
</g>
</svg>
